<?xml version="1.0" encoding="UTF-8" standalone="no"?>
<svg width="134px" height="133px" viewBox="0 0 134 133" version="1.1" xmlns="http://www.w3.org/2000/svg" xmlns:xlink="http://www.w3.org/1999/xlink">
    <!-- Generator: Sketch 3.6.1 (26313) - http://www.bohemiancoding.com/sketch -->
    <title>link15</title>
    <desc>Created with Sketch.</desc>
    <defs></defs>
    <g id="Page-1" stroke="none" stroke-width="1" fill="none" fill-rule="evenodd">
        <g id="Font-Awesome-Icon-Pack" transform="translate(-3479.000000, -1084.000000)" fill="#000000">
            <g id="link15" transform="translate(3479.843750, 1084.500000)">
                <path d="M125.637,80.665 L108.69,63.719 C104.128,59.157 98.589,56.875 92.071,56.875 C85.444,56.875 79.797,59.265 75.125,64.045 L67.955,56.875 C72.735,52.204 75.125,46.529 75.125,39.847 C75.125,33.329 72.871,27.817 68.362,23.308 L51.578,6.444 C47.07,1.827 41.53,-0.482 34.958,-0.482 C28.44,-0.482 22.927,1.773 18.419,6.281 L6.442,18.176 C1.825,22.685 -0.483,28.197 -0.483,34.715 C-0.483,41.233 1.799,46.774 6.361,51.336 L23.307,68.282 C27.87,72.844 33.41,75.126 39.928,75.126 C46.554,75.126 52.203,72.736 56.874,67.956 L64.044,75.126 C59.264,79.797 56.874,85.472 56.874,92.154 C56.874,98.672 59.128,104.183 63.636,108.693 L80.421,125.556 C84.93,130.173 90.468,132.482 97.04,132.482 C103.559,132.482 109.07,130.228 113.579,125.719 L125.557,113.824 C130.173,109.315 132.483,103.803 132.483,97.285 C132.482,90.768 130.201,85.229 125.637,80.665 L125.637,80.665 Z M56.875,45.797 C56.712,45.634 56.209,45.118 55.368,44.249 C54.527,43.38 53.943,42.796 53.617,42.497 C53.291,42.198 52.775,41.791 52.069,41.274 C51.362,40.758 50.67,40.405 49.991,40.215 C49.312,40.025 48.565,39.93 47.75,39.93 C45.578,39.93 43.731,40.691 42.21,42.211 C40.689,43.731 39.929,45.578 39.929,47.751 C39.929,48.565 40.024,49.312 40.214,49.991 C40.404,50.671 40.757,51.363 41.273,52.069 C41.789,52.775 42.197,53.291 42.495,53.617 C42.793,53.943 43.377,54.527 44.246,55.369 C45.115,56.211 45.631,56.713 45.794,56.876 C44.164,58.559 42.209,59.401 39.928,59.401 C37.701,59.401 35.854,58.668 34.388,57.202 L17.441,40.256 C15.921,38.735 15.16,36.888 15.16,34.715 C15.16,32.597 15.92,30.778 17.441,29.257 L29.418,17.361 C30.994,15.894 32.84,15.162 34.959,15.162 C37.131,15.162 38.978,15.922 40.499,17.443 L57.282,34.307 C58.803,35.828 59.563,37.675 59.563,39.847 C59.563,42.128 58.667,44.111 56.875,45.797 L56.875,45.797 Z M114.561,102.742 L102.583,114.638 C101.062,116.05 99.216,116.756 97.042,116.756 C94.814,116.756 92.97,116.024 91.503,114.557 L74.72,97.692 C73.199,96.171 72.44,94.325 72.44,92.153 C72.44,89.872 73.335,87.889 75.128,86.205 C75.292,86.368 75.794,86.885 76.636,87.753 C77.478,88.622 78.062,89.206 78.388,89.505 C78.714,89.804 79.23,90.211 79.935,90.728 C80.642,91.245 81.333,91.598 82.013,91.788 C82.693,91.978 83.439,92.072 84.253,92.072 C86.427,92.072 88.273,91.312 89.794,89.792 C91.314,88.271 92.075,86.425 92.075,84.252 C92.075,83.438 91.979,82.691 91.79,82.012 C91.599,81.333 91.247,80.64 90.729,79.934 C90.212,79.229 89.807,78.712 89.507,78.386 C89.208,78.061 88.624,77.477 87.755,76.634 C86.886,75.792 86.37,75.29 86.206,75.127 C87.837,73.389 89.792,72.52 92.072,72.52 C94.245,72.52 96.092,73.28 97.611,74.801 L114.558,91.747 C116.079,93.268 116.839,95.115 116.839,97.288 C116.84,99.404 116.08,101.225 114.561,102.742 L114.561,102.742 Z" id="Shape"></path>
            </g>
        </g>
    </g>
</svg>